<?xml version="1.0" standalone="no"?>
<!DOCTYPE svg PUBLIC "-//W3C//DTD SVG 20010904//EN"
 "http://www.w3.org/TR/2001/REC-SVG-20010904/DTD/svg10.dtd">
<svg version="1.0" xmlns="http://www.w3.org/2000/svg"
 width="300.000000pt" height="81.000000pt" viewBox="0 0 300.000000 81.000000"
 preserveAspectRatio="xMidYMid meet">
<metadata>
Created by potrace 1.10, written by Peter Selinger 2001-2011
</metadata>
<g transform="translate(0.000000,81.000000) scale(0.100000,-0.100000)"
fill="#000000" stroke="none">
<path d="M405 591 c-143 -64 -152 -271 -15 -341 80 -41 256 -10 225 40 -4 6
-16 3 -31 -9 -63 -50 -180 -31 -232 37 -23 30 -27 45 -27 98 0 70 17 102 75
142 44 30 129 31 176 2 23 -15 34 -17 40 -9 13 21 -69 57 -131 58 -22 0 -58
-8 -80 -18z"/>
<path d="M848 600 c-79 -24 -128 -94 -128 -185 0 -62 14 -97 57 -137 37 -36
73 -48 139 -48 102 0 181 67 191 164 16 140 -119 248 -259 206z m152 -42 c58
-40 75 -72 75 -141 0 -75 -27 -120 -89 -148 -159 -72 -310 100 -212 243 46 68
160 91 226 46z"/>
<path d="M1250 596 c0 -14 14 -16 98 -16 146 -1 206 -35 222 -128 8 -50 -6
-112 -33 -140 -37 -40 -75 -53 -168 -59 l-89 -6 0 87 c0 70 -3 86 -15 86 -12
0 -15 -17 -15 -95 l0 -95 103 0 c176 1 247 56 247 194 0 69 -37 128 -99 158
-60 29 -251 40 -251 14z"/>
<path d="M1740 595 c0 -13 21 -15 125 -15 104 0 125 2 125 15 0 13 -21 15
-125 15 -104 0 -125 -2 -125 -15z"/>
<path d="M2290 420 c0 -162 2 -190 15 -190 13 0 15 28 15 190 0 162 -2 190
-15 190 -13 0 -15 -28 -15 -190z"/>
<path d="M2430 595 c0 -12 14 -15 70 -15 l70 0 0 -175 c0 -149 2 -175 15 -175
13 0 15 26 15 175 l0 175 71 0 c52 0 70 3 67 13 -4 9 -46 13 -156 15 -131 2
-152 0 -152 -13z"/>
<path d="M1740 420 c0 -6 48 -10 125 -10 77 0 125 4 125 10 0 6 -48 10 -125
10 -77 0 -125 -4 -125 -10z"/>
<path d="M1744 251 c-16 -16 11 -21 121 -21 93 0 125 3 125 13 0 9 -31 12
-121 12 -66 0 -123 -2 -125 -4z"/>
</g>
</svg>
